<svg xmlns="http://www.w3.org/2000/svg" width="1167" height="1167" viewBox="0 0 1167 1167"><path fill="#0861ac" d="M342 51h15v3h24v-3h45v3h30v-3h12v3h6v-3h75v3h6v-3h18v3h81v3h15v3h75v3h30v3h42v3h6v3h48v3h15v3h24v3h15v3h33v3h6v3h21v3h15v3h15v3h6v3h12v3h9v3h9v3h3v3h12v3h6v3h9v6h9v3h6v3h3v3h6v3h6v3h3v3h3v3h3v3h6v3h3v3h3v3h3v3h3v6h3v3h3v3h3v9h3v6h3v12h3v12h3v39h-3v9h-3v9h-3v9h-3v6h-3v3h-3v3h-3v6h-3v3h-3v3h-6v6h-6v3h-3v3h-3v3h-3v3h-9v-6h3v-3h3v-30h-3v-3h-3v-6h-3v-3h-3v-3h-9v-3h-9v-3h-12v3h-15v3h-18v3h-21v3h-21v3h-9v3h-18v3h-18v3h-18v3h-18v3h-12v3h-15v3h-18v3h-21v3h-18v3h-12v3h-15v3h-18v3h9v3h6v3h9v3h6v3h12v3h6v3h6v3h9v3h9v3h6v3h9v3h6v3h9v3h6v3h9v3h3v3h9v3h6v3h9v3h6v3h3v3h9v3h6v3h3v3h6v3h9v3h3v3h6v3h6v3h3v3h6v3h3v3h3v3h3v3h3v6h3v9h3v18h-3v9h-3v6h-3v3h-3v3h-3v3h-3v3h-3v3h-3v3h-3v3h-3v3h-3v3h-3v3h-6v3h-3v3h-3v3h-6v3h-3v3h-3v3h-6v3h-3v3h-6v3h-3v3h-6v3h-3v3h-6v3h-3v3h-9v3h-9v3h-12v3h-18v3h-15v-3h-12v-3h-9v-3h-3v-3h-9v-3h-3v-3h-6v-3h-3v-3h-3v-3h-3v-3h-3v-3h-6v-3h-3v3h-12v3h-18v3h-15v3h-24v3h-6v3h-21v3h-12v6h-3v12h-3v3h-3v18h-3v9h-3v9h-3v15h-3v12h-3v6h-3v12h-3v9h-3v15h-3v9h-3v12h-3v6h-3v12h-3v12h-3v12h-3v12h-3v3h-3v18h-3v6h-3v15h-3v6h-3v15h-3v12h-3v9h-3v12h-3v12h-3v9h-3v6h-3v12h-3v12h-3v12h-3v12h-3v12h-3v6h-3v12h-3v9h-3v24h-3v21h3v24h3v9h3v9h3v3h3v9h6v6h3v6h3v3h3v3h3v3h3v6h3v3h3v6h3v3h3v3h3v3h3v6h3v3h3v6h3v3h3v3h3v6h3v9h-9v-3h-6v-3h-6v-3h-6v-3h-6v-3h-9v-3h-6v-3h-9v-3h-3v-3h-9v-3h-9v-3h-6v-3h-6v-3h-6v-3h-6v-3h-6v-3h-3v-3h-6v-3h-6v-3h-6v-3h-3v-3h-6v-3h-3v-3h-6v-3h-3v-3h-6v-6h-6v-3h-3v-3h-3v-3h-3v-3h-6v-3h-3v-3h-3v-3h-3v-3h-3v-3h-3v-3h-3v-3h-3v-3h-3v-3h-3v-3h-3v-6h-3v-3h-3v-3h-3v-6h-3v-3h-3v-6h-3v-3h-3v-3h-3v-3h-9v-3h-24v-3h-12v-9h3v-9h3v-6h3v-9h-3v-3h-3v-12h-3v-12h-3v-12h-3v-6h-3v-15h-3v-6h-3v-12h-3v-12h-3v-9h-3v-15h-3v-6h-3v-9h-3v-12h-3v-12h-3v-6h-3v-18h-3v-3h-3v-3h-9v-3h-21v-3h-18v-3h-3v-9h3v-3h3v-3h3v-3h3v-3h3v-3h3v-6h3v-3h3v-3h3v-3h3v-3h3v-6h3V579h3v-66h-3v-3h-3v-3h-6v-3h-6v-3h-6v-3h-3v-3h-3v-3h-6v-3h-3v-3h-3v-3h-6v-3h-3v-3h3v-3h6v-3h3v-3h6v-3h6v-3h6v-3h3v-3h6v-3h3v-3h6v-9h3v-6h3v-9h3v-9h3v-6h3v-9h3v-6h3v-12h3v-6h3v-9h3v-9h3v-9h3v-3h3v-9h3v-9h3v-6h-6v-3h-3v-3h-3v-3h-6v-3h-6v-3h-3v-3h-3v-3h-6v-3h-6v-3h-45v3h-39v3h-48v3h-18v3h-3v-3h-3v-6h3v-6h3v-6h3v-3h3v-3h3v-6h3v-6h3v-3h3v-6h3v-3h3v-6h3v-6h3v-3h3v-6h3v-3h3v-6h3v-6h3v-3h3v-6h3v-3h3v-6h3v-6h3v-6h3v-3h3v-6h3v-3h3v-6h3v-6h3v-3h3v-6h3v-3h3v-6h3v-3h3v-6h3v-6h3v-3h3v-6h3v-3h3v-6h3v-6h-3v-6h-3v-3h-3v-3h-3v-3h-3v-3h-3v-3h-3v-6h-3v-3h-3v-3h-3v-3h-3v-3h-3v-3h-3v-6h-3v-3h15v-3h15v-3h99z"/><path fill="#f9c336" d="M342 51h15v3h24v-3h45v3h30v-3h12v3h6v-3h75v3h6v-3h18v3h81v3h15v3h75v3h30v3h42v3h6v3h48v3h15v3h24v3h15v3h33v3h6v3h21v3h15v3h15v3h6v3h12v3h9v3h9v3h3v3h12v3h6v3h9v6h9v3h6v3h3v3h6v3h6v3h3v3h3v3h3v3h6v3h3v3h3v3h3v3h3v6h3v3h3v3h3v9h3v6h3v12h3v12h3v39h-3v9h-3v9h-3v9h-3v6h-3v3h-3v3h-3v6h-3v3h-3v3h-6v6h-6v3h-3v3h-3v3h-3v3h-9v-6h3v-3h3v-30h-3v-3h-3v-6h-3v-3h-3v-3h-9v-3h-9v-3h-12v3h-15v3h-18v3h-21v3h-21v3h-9v3h-18v3h-18v3h-18v3h-18v3h-12v3h-15v3h-18v3h-21v3h-18v3h-12v3h-15v3h-18v3h9v3h6v3h9v3h6v3h12v3h6v3h6v3h9v3h9v3h6v3h9v3h6v3h9v3h6v3h9v3h3v3h9v3h6v3h9v3h6v3h3v3h9v3h6v3h3v3h6v3h9v3h3v3h6v3h6v3h3v3h6v3h3v3h3v3h3v3h3v6h3v9h3v18h-3v9h-3v6h-3v3h-3v3h-3v3h-3v3h-3v3h-3v3h-3v3h-3v3h-3v3h-3v3h-6v3h-3v3h-3v3h-6v3h-3v3h-3v3h-6v3h-3v3h-6v3h-3v3h-6v3h-3v3h-6v3h-3v3h-9v3h-9v3h-12v3h-18v3h-15v-3h-12v-3h-9v-3h-3v-3h-9v-3h-3v-3h-6v-3h-3v-3h-3v-3h-3v-3h-3v-3h-6v-3h-3v3h-12v3h-18v3h-15v3h-24v3h-6v3h-21v3h-12v6h-3v12h-3v3h-3v18h-3v9h-3v9h-3v15h-3v12h-3v6h-3v12h-3v9h-3v15h-3v9h-3v12h-3v6h-3v12h-3v12h-3v12h-3v12h-3v3h-3v18h-3v6h-3v15h-3v6h-3v15h-3v12h-3v9h-3v12h-3v12h-3v9h-3v6h-3v12h-3v12h-3v12h-3v12h-3v12h-3v6h-3v12h-3v9h-3v24h-3v21h3v24h3v9h3v9h3v3h3v9h6v6h3v6h3v3h3v3h3v3h3v6h3v3h3v6h3v3h3v3h3v3h3v6h3v3h3v6h3v3h3v3h3v6h3v9h-9v-3h-6v-3h-6v-3h-6v-3h-6v-3h-9v-3h-6v-3h-9v-3h-3v-3h-9v-3h-9v-3h-6v-3h-6v-3h-6v-3h-6v-3h-6v-3h-3v-3h-6v-3h-6v-3h-6v-3h-3v-3h-6v-3h-3v-3h-6v-3h-3v-3h-6v-6h-6v-3h-3v-3h-3v-3h-3v-3h-6v-3h-3v-3h-3v-3h-3v-3h-3v-3h-3v-3h-3v-3h-3v-3h-3v-3h-3v-3h-3v-6h-3v-3h-3v-3h-3v-6h-3v-3h-3v-6h-3v-3h-3v-3h-3v-3h-9v-3h-24v-3h-12v-9h3v-9h3v-6h3v-9h-3v-3h-3v-12h-3v-12h-3v-12h-3v-6h-3v-15h-3v-6h-3v-12h-3v-12h-3v-9h-3v-15h-3v-6h-3v-9h-3v-12h-3v-12h-3v-6h-3v-18h-3v-3h-3v-3h-9v-3h-21v-3h-18v-3h-3v-9h3v-3h3v-3h3v-3h3v-3h3v-3h3v-6h3v-3h3v-3h3v-3h3v-3h3v-6h3V579h3v-66h-3v-3h-3v-3h-6v-3h-6v-3h-6v-3h-3v-3h-3v-3h-6v-3h-3v-3h-3v-3h-6v-3h-3v-3h3v-3h6v-3h3v-3h6v-3h6v-3h6v-3h3v-3h6v-3h3v-3h6v-9h3v-6h3v-9h3v-9h3v-6h3v-9h3v-6h3v-12h3v-6h3v-9h3v-9h3v-9h3v-3h3v-9h3v-9h3v-6h-6v-3h-3v-3h-3v-3h-6v-3h-6v-3h-3v-3h-3v-3h-6v-3h-6v-3h-45v3h-39v3h-48v3h-18v3h-3v-3h-3v-6h3v-6h3v-6h3v-3h3v-3h3v-6h3v-6h3v-3h3v-6h3v-3h3v-6h3v-6h3v-3h3v-6h3v-3h3v-6h3v-6h3v-3h3v-6h3v-3h3v-6h3v-6h3v-6h3v-3h3v-6h3v-3h3v-6h3v-6h3v-3h3v-6h3v-3h3v-6h3v-3h3v-6h3v-6h3v-3h3v-6h3v-3h3v-6h3v-6h-3v-6h-3v-3h-3v-3h-3v-3h-3v-3h-3v-3h-3v-6h-3v-3h-3v-3h-3v-3h-3v-3h-3v-3h-3v-6h-3v-3h15v-3h15v-3h99zm-3 27v3h-66v3h-3v3h3v6h3v3h3v3h3v3h3v6h3v6h-3v6h-3v3h-3v6h-3v6h-3v3h-3v6h-3v3h-3v6h-3v3h-3v6h-3v6h-3v3h-3v6h-3v6h-3v3h-3v6h-3v3h-3v6h-3v6h-3v3h-3v6h-3v3h-3v6h-3v3h-3v6h-3v6h-3v3h-3v6h-3v3h-3v6h-3v6h-3v3h-3v9h30v-3h33v-3h33v-3h33v-3h33v-3h36v-3h36v-3h27v-3h39v-3h30v-3h42v-3h36v3h-9v3h-18v3h-18v3h-18v3h-15v3h-15v3h-18v3h-18v3h-12v3h-15v3h-18v3h-18v3h-15v3h-18v3h-15v3h-12v3h-3v3h3v3h3v3h6v3h3v3h3v3h6v12h-3v9h-3v6h-3v6h-3v12h-3v6h-3v9h-3v6h-3v9h-3v9h-3v9h-3v12h3v-3h9v-3h9v-3h6v-3h9v-3h6v-3h6v-3h9v-3h9v-3h6v-3h9v-3h6v-3h9v-3h6v-3h9v-3h6v-3h9v-3h9v-3h6v-3h6v-3h9v-3h6v-3h9v-3h9v-3h6v-3h9v-3h6v-3h6v-3h9v-3h3v6h-6v3h-6v3h-6v3h-3v3h-6v3h-6v3h-6v3h-3v3h-6v3h-9v3h-3v3h-6v3h-6v3h-6v3h-6v3h-3v3h-6v3h-6v3h-6v3h-6v3h-3v3h-6v3h-6v3h-6v3h-3v3h-6v3h-6v3h-6v3h-3v3h-6v3h-6v3h-6v3h-3v3h-6v3h-6v3h-6v3h-6v3h-3v3h-6v3h-6v3h-6v3h-3v3h-9v3h-3v3h-6v3h-6v3h-3v3h-3v6h3v3h3v3h6v3h3v3h6v6h3v24h-3v102h9v-3h3v-3h3v-3h3v-3h3v-3h3v-3h3v-3h3v-3h6v-3h3v-3h3v-3h3v-3h3v-3h6v-6h3v-3h6v-3h3v-3h3v-3h3v-3h3v-3h6v-6h6v-3h3v-3h3v-3h3v-3h3v-3h6v-3h3v-3h3v-3h3v-3h3v-3h3v-3h3v-3h3v-3h6v-3h3v-3h3v-3h3v-3h3v-3h3v-3h3v-3h3v-3h6v-3h3v-3h3v-3h3v-3h3v-3h3v-3h3v-3h3v-3h6v-3h3v-3h3v-3h3v-3h3v-3h3v-3h3v-3h6v-3h3v-3h3v-3h3v-3h3v6h-3v3h-3v3h-3v3h-3v3h-3v3h-3v3h-3v6h-3v3h-3v3h-3v3h-3v3h-3v3h-3v3h-3v3h-3v6h-3v3h-3v3h-3v3h-3v3h-3v6h-3v3h-3v3h-3v3h-3v3h-3v3h-3v3h-3v3h-3v6h-3v3h-3v3h-3v3h-3v3h-3v3h-3v3h-3v6h-3v3h-3v3h-3v3h-3v3h-3v6h-3v3h-3v3h-3v3h-3v3h-3v3h-3v6h-3v3h-3v3h-3v3h-3v3h-3v6h-6v6h-3v3h-3v3h-3v3h-3v3h-3v6h-3v3h-3v3h-3v3h-3v3h-3v3h-3v6h-3v3h-3v3h-3v3h-3v3h-3v3h-3v3h-3v6h-3v3h-3v3h-3v3h-3v3h-3v3h-3v6h-3v6h9v3h12v3h3v9h3v12h3v9h3v9h3v12h3v12h3v9h3v12h3v9h3v9h3v9h3v12h3v12h3v6h6v-3h3v-3h3v-6h3v-3h3v-6h3v-6h3v-3h3v-6h3v-6h3v-6h3v-3h3v-6h3v-6h3v-3h3v-6h3v-6h3v-6h3v-3h3v-6h3v-6h3v-6h3v-3h3v-6h3v-6h3v-3h3v-6h3v-6h3v-6h3v-3h3v-6h3v-3h3v-6h3v-6h3v-3h3v-6h3v-6h3v-3h3v-6h3v-6h3v-6h3v-3h3v-6h3v-6h3v-3h3v-6h3v-6h3v-3h3v-6h3v-6h3v-6h3v-3h3v-6h3v-6h3v-3h3v-6h3v-6h3v-6h3v-3h3v-3h3v6h-3v9h-3v3h-3v6h-3v6h-3v9h-3v6h-3v6h-3v6h-3v9h-3v6h-3v6h-3v6h-3v9h-3v6h-3v6h-3v9h-3v6h-3v6h-3v6h-3v9h-3v6h-3v9h-3v6h-3v6h-3v9h-3v6h-3v6h-3v6h-3v6h-3v9h-3v6h-3v9h-3v3h-3v9h-3v6h-3v9h-3v6h-3v6h-3v6h-3v9h-3v6h-3v9h-3v6h-3v6h-3v6h-3v9h-3v6h-3v6h-3v6h-3v9h-3v6h-3v9h-3v3h3v3h15v3h9v3h3v9h3v3h3v6h3v6h3v3h3v6h3v3h3v3h3v3h3v6h3v3h3v3h6v3h3v3h3v3h3v3h3v3h3v3h6v3h3v3h3v3h3v3h6v3h3v3h6v3h3v3h6v3h3v3h6v3h6v3h6v3h3v3h12v-3h-3v-9h-3v-3h-3v-9h-3v-9h-3v-12h-3v-24h-3v-12h3v-30h3v-12h3v-12h3v-12h3v-9h3v-12h3v-9h3v-12h3v-9h3v-9h3v-12h3v-12h3v-9h3v-12h3v-12h3v-9h3v-12h3v-9h3v-12h3v-9h3v-9h3v-12h3v-12h3v-12h3v-12h3v-9h3v-9h3v-12h3v-12h3v-9h3v-9h3v-12h3v-12h3v-12h3v-9h3v-12h3v-9h3v-12h3v-9h3v-12h3v-9h3v-12h3v-12h3v-9h3v-12h3v-12h3v-9h3v-9h3v-9h3v-12h3v-12h3v-12h3v-9h3v-12h3v-9h3v-12h3v-9h3v-12h3v-9h3v-6h-3v-3h-6v-3h-3v-3h-6v-3h-6v-3h-3v-3h6v-3h18v-3h15v-3h18v-3h15v-3h18v-3h15v-3h18v-3h21v-3h15v-3h18v-3h12v-3h18v-3h18v-3h15v-3h21v-3h12v-3h21v-3h15v-3h21v-3h12v-3h21v-3h42v3h12v3h6v3h6v3h3v6h3v9h6v-3h3v-12h3v-42h-3v-9h-3v-6h-3v-3h-3v-6h-3v-3h-3v-3h-3v-3h-3v-3h-3v-3h-3v-3h-3v-3h-6v-3h-3v-3h-6v-3h-6v-3h-6v-3h-6v-3h-6v-3h-6v-3h-9v-3h-9v-3h-9v-3h-9v-3h-12v-3h-9v-3h-12v-3h-12v-3h-15v-3h-15v-3h-15v-3h-21v-3h-15v-3h-24v-3h-21v-3h-36v-3h-21v-3h-36v-3h-60v-3h-72v-3z"/><path fill="#0861ac" d="M735 330h12v3h9v3h9v3h9v3h6v3h9v3h9v3h9v3h6v3h9v3h6v3h9v3h9v3h6v3h9v3h6v3h9v3h6v3h6v3h9v3h6v3h9v3h6v3h3v3h9v3h6v3h6v3h6v3h3v3h6v3h6v3h6v3h3v3h3v3h3v3h3v12h-3v3h-3v6h-3v3h-3v3h-6v3h-3v3h-3v3h-3v3h-3v3h-6v3h-3v3h-3v3h-6v3h-3v3h-6v3h-3v3h-6v3h-3v3h-9v-3h3v-3h3v-3h3v-3h3v-6h3v-3h3v-6h3v-9h-3v-3h-18v3h-15v3h-18v3h-6v3h-6v3h-3v3h-3v6h-3v15h3v6h3v6h3v3h-15v-3h-9v-3h-3v-3h-6v-3h-3v-3h-6v-6h-3v-3h-3v-3h-3v-6h-21v3h-15v3h-18v3h-18v3h-15v3h-15v3h-15v-15h3v-12h3v-12h3v-6h3v-12h3v-12h3v-12h3v-9h3v-12h3v-12h3v-12h3v-12h3v-12h3v-6h3v-12h3z"/><path fill="#fff" d="M324 150h27v3h3v-3h3v3h93v3h78v3h102v3h75v3h69v3h57v3h96v3h3v3h6v6h-6v3h-6v-3h-3v3h-39v3h-15v-3h-3v3H756v3h-57v3H597v3h-78v3h-81v3h-78v3h-69v-3h3v-6h3v-6h3v-3h3v-6h3v-6h3v-3h3v-6h3v-6h3v-3h3v-6h3z"/><path fill="#0861ac" d="M246 534h6v3h3v27h-12v3h-3v51h3v39h3v24h3v3h15v18h3v12h-21v3h-54v-30h9v-3h3v-12h-3v-27h-3v-3h-6v3h-30v3h-3v27h3v15h15v6h3v21h-3v3h-54v3h-12v-3h-3v-27h12v-15h-3v-30h-3v-72h-3v-3h-3v3h-9v-30h3v-3h36v-3h30v3h3v18h-3v9h-12v3h-3v30h3v12h21v-3h21v-45h-6v3h-6v-3h-3v-27h9v-3h54zm-72 222h36v3h3v3h3v3h6v-3h-3v-6h45v9h3v6h3v18h3v6h-3v3h-30v3h-6v-3h-3v-6h-3v-3h-42v15h3v6h3v9h3v9h24v3h12v-3h27v3h9v3h6v3h6v3h6v3h3v3h3v3h3v9h3v9h3v6h3v6h3v6h3v9h3v6h3v9h-3v3h-3v6h-6v3h-3v6h-3v3h-39v3h-9v-3h-6v-3h-3v3h-3v3h-39v-3h-3v-6h-3v-6h-3v-6h-3v-6h-3v-6h-3v-6h42v3h3v3h3v3h12v-3h27v-9h-3v-6h-3v-6h-3v-9h-3v-6h-3v-6h-15v3h-45v-3h-9v-3h-9v-3h-6v-3h-6v-3h-3v-6h-3v-9h-3v-9h-3v-9h-3v-12h-3v-6h-3v-15h3v-3h6v-3h3v-3h3v-3h3v-3h3v-3h6v-3h6zm-18-438h132v9h-3v12h-3v12h-3v6h-24v3h-15v-3h-3v-9h-36v3h-3v12h-3v9h-3v12h-3v6h-3v3h33v21h-3v6h-33v3h-3v9h-3v12h-3v18h-3v3h3v3h12v12h-3v15h-3v3h-39v3h-30v-18h3v-12h15v-3h3v-15h3v-18h3v-15h3v-15h3v-9h3v-12h3v-9h3v-12h3v-9h-9v-3h-3v-6h3v-9h3v-12h3v-3h3z"/><path fill="#fff" d="M573 645h6v6h-3v9h-3v12h-3v6h-3v9h-3v15h-3v6h-3v12h-3v12h-3v12h-3v6h-3v15h-3v9h-3v12h-3v12h-3v12h-3v9h-3v9h-3v15h-3v9h-3v15h-3v9h-3v12h-3v9h-3v9h-3v12h-3v12h-3v9h-3v12h-3v9h-6v-6h-6v-6h-3v-3h-3v-3h-3v-6h-3v-3h-3v-3h-3v-3h-3v-6h-3v-3h-3v-12h3v-9h3v-6h3v-6h3v-6h3v-6h3v-6h3v-9h3v-6h3v-6h3v-6h3v-6h3v-6h3v-9h3v-6h3v-6h3v-6h3v-6h3v-9h3v-3h3v-9h3v-6h3v-6h3v-6h3v-6h3v-9h3v-6h3v-6h3v-6h3v-6h3v-9h3v-6h3v-6h3v-6h3v-6h3v-6h3v-6h3v-9h3v-6h3v-6h3zm-48-120h3v9h-3v3h-3v3h-3v6h-3v3h-3v6h-3v6h-3v3h-3v6h-3v3h-3v6h-3v3h-3v6h-3v3h-3v6h-3v6h-3v3h-3v6h-3v6h-3v3h-3v6h-3v3h-3v6h-3v6h-3v6h-3v3h-3v6h-3v3h-3v6h-3v3h-3v6h-3v3h-3v6h-3v6h-3v3h-3v6h-3v3h-3v6h-3v6h-3v6h-3v3h-3v6h-3v3h-3v6h-3v6h-3v6h-3v6h-3v3h-3v3h-3v3h-3v-6h-3v-9h-3v-12h-3v-6h-3v-12h-3v-3h3v-6h3v-3h3v-6h3v-3h3v-3h3v-3h3v-3h3v-3h3v-3h3v-6h3v-3h3v-3h3v-3h3v-3h3v-3h3v-6h3v-3h3v-3h3v-3h3v-3h3v-3h3v-6h3v-3h3v-3h3v-3h3v-3h3v-6h6v-6h3v-3h3v-3h3v-3h3v-3h3v-6h3v-3h3v-3h3v-3h3v-3h3v-6h6v-6h3v-3h3v-3h3v-3h3v-3h3v-6h3v-3h3v-3h3v-3h3v-6h3v-3h3v-3h3v-3h3zm-6-132h3v6h-3v3h-3v3h-3v3h-3v3h-3v3h-6v3h-3v3h-3v3h-3v3h-3v3h-3v3h-3v3h-3v3h-3v3h-3v3h-6v6h-6v3h-3v3h-3v3h-3v3h-3v3h-3v3h-3v3h-3v3h-3v3h-3v3h-3v3h-3v3h-3v3h-3v3h-3v3h-3v3h-6v3h-3v3h-3v3h-3v3h-3v3h-3v3h-3v3h-3v3h-3v3h-3v3h-3v3h-3v3h-3v3h-3v3h-3v3h-3v3h-3v3h-3v3h-6v3h-3v3h-3v-3h-3v-18h-3v-18h-3v-12h3v-3h6v-3h3v-3h6v-3h3v-3h6v-3h6v-3h3v-3h6v-3h6v-3h3v-3h3v-3h6v-3h6v-3h3v-3h6v-3h6v-3h3v-3h6v-3h3v-3h6v-3h6v-3h3v-3h6v-3h3v-3h6v-3h6v-3h3v-3h6v-3h6v-3h3v-3h6v-3h3v-3h6v-3h3v-3h6v-3h3v-3h6zm27-102h18v3h-3v3h-6v3h-6v3h-9v3h-6v3h-6v3h-9v3h-6v3h-6v3h-9v3h-9v3h-3v3h-6v3h-9v3h-9v3h-6v3h-6v3h-6v3h-9v3h-6v3h-6v3h-9v3h-6v3h-6v3h-9v3h-6v3h-6v3h-9v-6h3v-6h3v-12h3v-6h3v-9h3v-6h3v-9h6v-3h15v-3h21v-3h12v-3h18v-3h15v-3h21v-3h12v-3h15v-3h21zm525-123h9v3h6v3h3v3h6v3h3v3h3v3h3v3h3v3h3v6h3v6h3v6h3v9h3v15h-6v-3h-3v-3h-3v-3h-6v-3h-60v3h-21v3h-12v3h-18v3h-12v3h-9v-9h3v-3h6v-3h12v-3h12v-3h6v-3h15v-3h12v-3h12v-3h9v-3h3v-3h3v-3h3v-3h3v-6h3v-9h-3zM744 444h48v3h9v-3h3v3h57v3h15v3h-9v3h-15v3h-21v3h-18v3h-12v3h-18v3h-18v3h-15v3h-12v3h-9v-6h3v-9h3v-6h3v-9h3v-3h3z"/><path fill="#fff" d="M975 147h9v3h9v3h12v3h9v3h9v3h6v3h9v3h6v3h6v3h3v3h6v6h-12v3h-18v3h-6v-3h-6v-3h-3v-3h-3v-3h-3v-3h-3v-3h-3v-3h-6v-3h-3v-3h-3v-3h-3v-3h-6v-3h-3v-3h-3zM111 576h3v45h-3zm72 315h39v3h-39zm39-138h39v3h-39zm-15-219h39v3h-39zm51 396h36v3h-36zM669 57h33v3h-33zM153 573h3v30h-3zM426 51h30v3h-30zM123 720h27v3h-27zM96 546h3v27h-3zM822 69h27v3h-27zM240 594h3v24h-3zm-99-96h24v3h-24zm114-141h24v3h-24zm-93-54h24v3h-24zm30 414h21v3h-21zm54-3h21v3h-21zm-6 84h18v3h-18zm-57-378h18v3h-18zm54 438h15v3h-15zm27-171h3v15h-3zm-150-39h3v15h-3zm48-36h15v3h-15zm93-72h3v15h-3zm-132 0h15v3h-15zm594-15h15v3h-15zM201 348h15v3h-15zM924 81h15v3h-15z"/></svg>